<svg width="111" height="211" viewBox="0 0 111 211" fill="none" xmlns="http://www.w3.org/2000/svg">
<g style="mix-blend-mode:color-dodge">
<path fill-rule="evenodd" clip-rule="evenodd" d="M104.615 0.393479C104.899 0.734771 104.854 1.24351 104.513 1.52977C101.846 3.77224 96.0647 10.8786 94.835 20.9706C94.7811 21.4129 94.3804 21.7283 93.9399 21.6751C93.4994 21.6219 93.186 21.2202 93.2399 20.778C94.5276 10.2102 100.559 2.75144 103.483 0.293847C103.824 0.00757968 104.331 0.0521885 104.615 0.393479ZM70.9246 15.9905C71.3632 15.922 71.7734 16.2233 71.8408 16.6634C72.2636 19.4251 72.7977 23.9514 73.0296 28.5793C73.2602 33.1817 73.1982 37.9819 72.3836 41.2388C72.2755 41.6711 71.839 41.9342 71.4086 41.8266C70.9782 41.7189 70.7169 41.2813 70.825 40.849C71.5764 37.8447 71.6547 33.2549 71.4246 28.6636C71.1958 24.0977 70.668 19.6265 70.2524 16.9116C70.185 16.4714 70.486 16.0591 70.9246 15.9905ZM97.8257 44.2681C93.0202 45.9046 87.9914 48.276 84.8329 49.9603C84.4407 50.1694 83.9545 50.0201 83.7469 49.6268C83.5394 49.2335 83.6891 48.7451 84.0813 48.536C87.2926 46.8236 92.4027 44.4125 97.3122 42.7406C99.7654 41.9052 102.196 41.2448 104.328 40.9553C106.425 40.6705 108.386 40.7211 109.788 41.4707C110.179 41.68 110.327 42.1684 110.118 42.5617C109.908 42.9549 109.422 43.104 109.03 42.8948C108.095 42.3946 106.565 42.2788 104.54 42.5538C102.551 42.8239 100.23 43.4493 97.8257 44.2681ZM48.2983 43.5924C48.7378 43.5295 49.1441 43.8359 49.206 44.2769L53.0729 71.8558C53.1347 72.2968 52.8286 72.7053 52.3892 72.7683C51.9498 72.8312 51.5434 72.5248 51.4816 72.0838L47.6146 44.5049C47.5528 44.0639 47.8589 43.6554 48.2983 43.5924ZM79.9076 78.6051C74.2929 79.8655 68.899 81.9328 65.6603 83.4478C65.2577 83.6361 64.78 83.4615 64.5932 83.0579C64.4064 82.6542 64.5814 82.1742 64.9839 81.9859C68.3094 80.4302 73.8137 78.3208 79.5599 77.0309C85.2659 75.75 91.388 75.2349 95.8374 77.0513C96.2482 77.2189 96.4451 77.6894 96.2772 78.1021C96.1093 78.5148 95.6402 78.7134 95.2295 78.5457C91.264 76.9269 85.5625 77.3356 79.9076 78.6051ZM26.8185 79.0748C27.2277 78.9015 27.6986 79.0938 27.8703 79.5042C29.4716 83.3304 32.3308 93.9836 31.2131 106.49C31.1735 106.933 30.783 107.262 30.3411 107.223C29.8991 107.184 29.5729 106.792 29.6126 106.349C30.7049 94.1263 27.8971 83.736 26.3886 80.1315C26.2168 79.7211 26.4093 79.248 26.8185 79.0748ZM59.4906 111.879C53.861 111.873 48.5925 113.091 45.4851 114.207C45.067 114.357 44.6075 114.139 44.4587 113.72C44.3099 113.3 44.5282 112.839 44.9463 112.689C48.2074 111.517 53.6599 110.26 59.4955 110.266C65.3248 110.272 71.6406 111.54 76.5122 115.533C76.8556 115.814 76.9061 116.322 76.625 116.668C76.3439 117.013 75.8377 117.065 75.4943 116.783C71.0202 113.116 65.1265 111.885 59.4906 111.879ZM1.90272 105.385C2.27099 105.136 2.77024 105.233 3.01783 105.602C5.12023 108.737 9.21947 118.056 9.36298 130.881C9.36797 131.327 9.01229 131.693 8.56856 131.698C8.12483 131.704 7.76107 131.348 7.75609 130.903C7.61591 118.375 3.60261 109.366 1.6842 106.505C1.43661 106.136 1.53445 105.635 1.90272 105.385ZM-21.3985 132.729C-20.9949 132.543 -20.5182 132.721 -20.3338 133.126C-18.8339 136.417 -16.2958 146.735 -17.5675 162.475C-17.6034 162.919 -17.9911 163.251 -18.4334 163.216C-18.8757 163.181 -19.2051 162.792 -19.1693 162.348C-17.9119 146.786 -20.444 136.765 -21.7954 133.799C-21.9798 133.394 -21.8022 132.915 -21.3985 132.729ZM48.475 155.814C38.2596 150.003 26.5117 150.601 21.9625 151.62C21.5292 151.717 21.1003 151.443 21.0045 151.009C20.9087 150.574 21.1823 150.143 21.6156 150.046C26.4228 148.969 38.6071 148.345 49.2693 154.41C49.6551 154.629 49.79 155.121 49.5706 155.509C49.3513 155.897 48.8608 156.033 48.475 155.814ZM-40.0048 151.286C-39.5767 151.168 -39.135 151.42 -39.0182 151.85C-37.6978 156.706 -35.8737 169.499 -39.0473 182.188C-39.1554 182.621 -39.5919 182.884 -40.0223 182.776C-40.4527 182.669 -40.7139 182.231 -40.6058 181.799C-37.5156 169.443 -39.3012 156.939 -40.5685 152.277C-40.6853 151.848 -40.4329 151.404 -40.0048 151.286ZM16.5847 183.558C7.94469 176.865 -3.76742 176.581 -8.52446 177.285C-8.96359 177.35 -9.37139 177.046 -9.43529 176.605C-9.4992 176.164 -9.19502 175.755 -8.75588 175.689C-3.76749 174.951 8.45066 175.218 17.5681 182.28C17.9191 182.552 17.9835 183.059 17.7119 183.411C17.4404 183.764 16.9357 183.83 16.5847 183.558ZM-22.4849 203.876C-26.2577 202.634 -29.9953 202.189 -32.2599 202.159C-32.7036 202.154 -33.0579 201.788 -33.0512 201.343C-33.0446 200.897 -32.6795 200.541 -32.2358 200.546C-29.8234 200.578 -25.9228 201.045 -21.9813 202.343C-18.0493 203.637 -13.9801 205.789 -11.3503 209.257C-11.0817 209.611 -11.1504 210.117 -11.5037 210.387C-11.857 210.657 -12.3611 210.589 -12.6296 210.235C-14.9813 207.135 -18.7026 205.121 -22.4849 203.876Z" fill="#87C12F"/>
</g>
</svg>
